<?xml version="1.0" encoding="utf-8"?>
<!-- Generator: Adobe Illustrator 19.2.0, SVG Export Plug-In . SVG Version: 6.00 Build 0)  -->
<!DOCTYPE svg PUBLIC "-//W3C//DTD SVG 1.1//EN" "http://www.w3.org/Graphics/SVG/1.1/DTD/svg11.dtd">
<svg version="1.1" id="Layer_1" xmlns="http://www.w3.org/2000/svg" xmlns:xlink="http://www.w3.org/1999/xlink" x="0px" y="0px"
	 viewBox="0 0 54 111.1" style="enable-background:new 0 0 54 111.1;" xml:space="preserve">
<style type="text/css">
	.st0{fill:#fff;}
</style>
<path class="st0" d="M0.9,54.3c0.8-0.8,1.6-1.6,2.4-2.5c2.8-2.9,5.6-5.8,8.4-8.7c8.7-9,17.4-18,26.1-27C42.9,10.8,48,5.5,53.1,0.2
	c0.5-0.5,1.1,0.3,0.7,0.7c-0.2,0.2-0.3,0.4-0.5,0.5c-0.8,0.9-1.7,1.7-2.5,2.6c-3.2,3.3-6.4,6.6-9.6,10c-8.7,9-17.4,18.1-26.2,27.1
	c-3.4,3.5-6.8,7-10.2,10.5c-1,1-2,2-3,3.1c-0.2,0.2-0.4,0.5-0.7,0.8c0.1,0.1,0.2,0.3,0.4,0.4c0.9,0.9,1.8,1.8,2.6,2.7
	c3.2,3.4,6.5,6.7,9.7,10.1c8.7,9,17.4,18.1,26.2,27.1c3.3,3.5,6.7,6.9,10,10.4c1,1,1.9,2,2.9,3c0.1,0.1,0.9,0.8,1,1.3
	c0,0.1,0,0.2,0,0.3c-0.1,0.1-0.2,0.2-0.5,0.2c-0.4,0-0.9-0.8-1.2-1c-0.8-0.9-1.6-1.7-2.5-2.6c-2.9-3-5.7-5.9-8.6-8.9
	c-8.7-9-17.4-18.1-26.1-27.1c-5-5.2-10-10.4-15-15.6c0,0,0-0.1-0.1-0.1c0,0-0.1,0-0.1-0.1c0,0,0-0.1,0-0.1c0-0.1,0-0.1,0-0.2
	c0,0,0,0,0-0.1C0.2,55,0.8,54.5,0.9,54.3z"/>
</svg>
